PathFileType	4	(X/Y/Z)	E:/New_biomech_experiments/2 Elbow flexion/Shreyas_pp_27_6_24_t02.trc	
DataRate	CameraRate	NumFrames	NumMarkers	Units	OrigDataRate	OrigDataStartFrame	OrigNumFrames	
120.00	120.00	91	3	m	120.00	2952	5903	
Frame#	Time	r_humerus_epicondyle			r_acromion			r_radius_styloid			
		X1	Y1	Z1	X2	Y2	Z2	X3	Y3	Z3	

2952	24.592	0.01408	0.49543	0.26719	-0.01057	0.81750	0.20656	0.12640	0.69428	0.23094 
2953	24.600	0.01398	0.49543	0.26719	-0.01058	0.81752	0.20651	0.12630	0.69430	0.23094 
2954	24.608	0.01387	0.49544	0.26719	-0.01058	0.81754	0.20645	0.12622	0.69432	0.23095 
2955	24.617	0.01376	0.49546	0.26720	-0.01056	0.81756	0.20640	0.12613	0.69434	0.23096 
2956	24.625	0.01365	0.49548	0.26721	-0.01054	0.81759	0.20636	0.12606	0.69436	0.23098 
2957	24.633	0.01355	0.49550	0.26722	-0.01051	0.81763	0.20631	0.12600	0.69437	0.23100 
2958	24.642	0.01345	0.49553	0.26723	-0.01048	0.81767	0.20628	0.12596	0.69438	0.23104 
2959	24.650	0.01336	0.49557	0.26725	-0.01045	0.81771	0.20625	0.12595	0.69439	0.23107 
2960	24.658	0.01328	0.49560	0.26727	-0.01042	0.81776	0.20622	0.12596	0.69439	0.23111 
2961	24.667	0.01321	0.49565	0.26729	-0.01040	0.81781	0.20620	0.12599	0.69439	0.23115 
2962	24.675	0.01316	0.49569	0.26732	-0.01038	0.81786	0.20618	0.12605	0.69439	0.23118 
2963	24.683	0.01312	0.49574	0.26735	-0.01037	0.81792	0.20617	0.12612	0.69438	0.23122 
2964	24.692	0.01310	0.49579	0.26738	-0.01037	0.81797	0.20616	0.12620	0.69438	0.23125 
2965	24.700	0.01309	0.49584	0.26742	-0.01036	0.81802	0.20615	0.12629	0.69438	0.23129 
2966	24.708	0.01309	0.49589	0.26746	-0.01037	0.81806	0.20615	0.12638	0.69439	0.23133 
2967	24.717	0.01310	0.49594	0.26751	-0.01037	0.81810	0.20615	0.12647	0.69440	0.23136 
2968	24.725	0.01312	0.49598	0.26757	-0.01038	0.81813	0.20616	0.12655	0.69442	0.23139 
2969	24.733	0.01315	0.49601	0.26762	-0.01039	0.81816	0.20617	0.12661	0.69444	0.23142 
2970	24.742	0.01319	0.49604	0.26768	-0.01040	0.81819	0.20618	0.12667	0.69447	0.23145 
2971	24.750	0.01323	0.49606	0.26774	-0.01042	0.81820	0.20620	0.12671	0.69450	0.23147 
2972	24.758	0.01328	0.49608	0.26779	-0.01043	0.81821	0.20622	0.12674	0.69453	0.23149 
2973	24.767	0.01334	0.49609	0.26784	-0.01045	0.81821	0.20624	0.12676	0.69455	0.23151 
2974	24.775	0.01340	0.49609	0.26788	-0.01047	0.81820	0.20627	0.12678	0.69457	0.23153 
2975	24.783	0.01346	0.49608	0.26792	-0.01050	0.81818	0.20630	0.12678	0.69459	0.23155 
2976	24.792	0.01352	0.49607	0.26796	-0.01052	0.81815	0.20633	0.12678	0.69459	0.23158 
2977	24.800	0.01357	0.49604	0.26800	-0.01055	0.81812	0.20637	0.12676	0.69459	0.23161 
2978	24.808	0.01361	0.49601	0.26804	-0.01057	0.81808	0.20641	0.12674	0.69457	0.23165 
2979	24.817	0.01364	0.49597	0.26808	-0.01060	0.81803	0.20645	0.12671	0.69455	0.23169 
2980	24.825	0.01367	0.49594	0.26812	-0.01062	0.81797	0.20649	0.12667	0.69451	0.23173 
2981	24.833	0.01369	0.49590	0.26817	-0.01064	0.81791	0.20654	0.12663	0.69447	0.23178 
2982	24.842	0.01371	0.49588	0.26824	-0.01067	0.81785	0.20658	0.12659	0.69442	0.23182 
2983	24.850	0.01374	0.49587	0.26833	-0.01069	0.81779	0.20663	0.12654	0.69436	0.23187 
2984	24.858	0.01376	0.49587	0.26842	-0.01071	0.81772	0.20667	0.12650	0.69430	0.23191 
2985	24.867	0.01375	0.49584	0.26847	-0.01073	0.81766	0.20672	0.12646	0.69424	0.23194 
2986	24.875	0.01372	0.49578	0.26848	-0.01075	0.81760	0.20676	0.12643	0.69417	0.23197 
2987	24.883	0.01369	0.49572	0.26848	-0.01077	0.81754	0.20680	0.12639	0.69410	0.23199 
2988	24.892	0.01365	0.49566	0.26847	-0.01078	0.81748	0.20684	0.12636	0.69403	0.23200 
2989	24.900	0.01363	0.49562	0.26848	-0.01078	0.81744	0.20688	0.12634	0.69397	0.23201 
2990	24.908	0.01362	0.49561	0.26852	-0.01079	0.81740	0.20692	0.12631	0.69391	0.23200 
2991	24.917	0.01361	0.49561	0.26855	-0.01079	0.81736	0.20695	0.12629	0.69386	0.23199 
2992	24.925	0.01362	0.49562	0.26860	-0.01079	0.81733	0.20698	0.12627	0.69382	0.23197 
2993	24.933	0.01363	0.49564	0.26864	-0.01078	0.81731	0.20701	0.12625	0.69378	0.23195 
2994	24.942	0.01362	0.49565	0.26865	-0.01077	0.81729	0.20704	0.12623	0.69374	0.23193 
2995	24.950	0.01362	0.49565	0.26864	-0.01076	0.81728	0.20706	0.12621	0.69372	0.23190 
2996	24.958	0.01361	0.49565	0.26861	-0.01074	0.81728	0.20708	0.12620	0.69370	0.23187 
2997	24.967	0.01361	0.49565	0.26857	-0.01072	0.81728	0.20709	0.12619	0.69368	0.23183 
2998	24.975	0.01361	0.49565	0.26853	-0.01070	0.81728	0.20710	0.12620	0.69367	0.23180 
2999	24.983	0.01362	0.49565	0.26849	-0.01067	0.81729	0.20711	0.12620	0.69366	0.23177 
3000	24.992	0.01363	0.49565	0.26845	-0.01065	0.81730	0.20711	0.12622	0.69366	0.23175 
3001	25.000	0.01365	0.49565	0.26842	-0.01062	0.81731	0.20711	0.12624	0.69366	0.23172 
3002	25.008	0.01367	0.49566	0.26838	-0.01060	0.81733	0.20710	0.12626	0.69367	0.23170 
3003	25.017	0.01370	0.49567	0.26836	-0.01058	0.81735	0.20709	0.12628	0.69368	0.23167 
3004	25.025	0.01373	0.49568	0.26834	-0.01057	0.81736	0.20707	0.12630	0.69371	0.23165 
3005	25.033	0.01376	0.49570	0.26832	-0.01056	0.81738	0.20706	0.12630	0.69374	0.23164 
3006	25.042	0.01380	0.49572	0.26832	-0.01055	0.81740	0.20704	0.12631	0.69377	0.23162 
3007	25.050	0.01383	0.49575	0.26832	-0.01055	0.81743	0.20702	0.12631	0.69382	0.23161 
3008	25.058	0.01386	0.49577	0.26832	-0.01055	0.81745	0.20700	0.12631	0.69387	0.23160 
3009	25.067	0.01389	0.49580	0.26833	-0.01056	0.81747	0.20697	0.12630	0.69392	0.23160 
3010	25.075	0.01391	0.49582	0.26835	-0.01057	0.81749	0.20695	0.12629	0.69397	0.23160 
3011	25.083	0.01393	0.49584	0.26836	-0.01058	0.81751	0.20693	0.12628	0.69402	0.23160 
3012	25.092	0.01395	0.49585	0.26838	-0.01059	0.81753	0.20691	0.12628	0.69407	0.23160 
3013	25.100	0.01396	0.49585	0.26838	-0.01061	0.81756	0.20688	0.12628	0.69412	0.23161 
3014	25.108	0.01395	0.49585	0.26838	-0.01062	0.81758	0.20686	0.12628	0.69416	0.23162 
3015	25.117	0.01394	0.49582	0.26836	-0.01064	0.81761	0.20684	0.12629	0.69421	0.23164 
3016	25.125	0.01390	0.49578	0.26830	-0.01066	0.81764	0.20681	0.12630	0.69424	0.23166 
3017	25.133	0.01385	0.49572	0.26824	-0.01069	0.81766	0.20679	0.12631	0.69428	0.23168 
3018	25.142	0.01381	0.49569	0.26820	-0.01071	0.81769	0.20677	0.12631	0.69431	0.23171 
3019	25.150	0.01378	0.49569	0.26820	-0.01074	0.81772	0.20675	0.12631	0.69435	0.23173 
3020	25.158	0.01376	0.49572	0.26824	-0.01077	0.81774	0.20673	0.12630	0.69438	0.23176 
3021	25.167	0.01375	0.49579	0.26832	-0.01080	0.81777	0.20671	0.12628	0.69440	0.23179 
3022	25.175	0.01374	0.49587	0.26842	-0.01083	0.81780	0.20669	0.12625	0.69443	0.23182 
3023	25.183	0.01371	0.49592	0.26848	-0.01086	0.81783	0.20667	0.12622	0.69445	0.23185 
3024	25.192	0.01366	0.49596	0.26851	-0.01089	0.81785	0.20665	0.12619	0.69446	0.23188 
3025	25.200	0.01361	0.49599	0.26853	-0.01093	0.81788	0.20663	0.12616	0.69448	0.23190 
3026	25.208	0.01356	0.49603	0.26855	-0.01096	0.81791	0.20661	0.12613	0.69449	0.23192 
3027	25.217	0.01350	0.49606	0.26856	-0.01100	0.81793	0.20659	0.12610	0.69450	0.23195 
3028	25.225	0.01346	0.49610	0.26857	-0.01104	0.81796	0.20657	0.12607	0.69451	0.23197 
3029	25.233	0.01341	0.49613	0.26858	-0.01107	0.81798	0.20654	0.12604	0.69452	0.23198 
3030	25.242	0.01336	0.49615	0.26855	-0.01111	0.81800	0.20651	0.12600	0.69453	0.23200 
3031	25.250	0.01329	0.49612	0.26847	-0.01115	0.81802	0.20648	0.12596	0.69455	0.23201 
3032	25.258	0.01320	0.49607	0.26835	-0.01119	0.81804	0.20645	0.12592	0.69457	0.23201 
3033	25.267	0.01313	0.49602	0.26825	-0.01123	0.81806	0.20642	0.12587	0.69460	0.23201 
3034	25.275	0.01308	0.49601	0.26818	-0.01126	0.81807	0.20639	0.12582	0.69463	0.23200 
3035	25.283	0.01306	0.49601	0.26814	-0.01130	0.81809	0.20635	0.12577	0.69466	0.23199 
3036	25.292	0.01305	0.49604	0.26814	-0.01133	0.81810	0.20631	0.12572	0.69470	0.23197 
3037	25.300	0.01308	0.49610	0.26817	-0.01136	0.81811	0.20627	0.12568	0.69474	0.23195 
3038	25.308	0.01312	0.49617	0.26822	-0.01139	0.81812	0.20622	0.12564	0.69478	0.23192 
3039	25.317	0.01317	0.49624	0.26826	-0.01142	0.81812	0.20617	0.12562	0.69483	0.23189 
3040	25.325	0.01322	0.49630	0.26830	-0.01144	0.81813	0.20612	0.12561	0.69487	0.23185 
3041	25.333	0.01328	0.49636	0.26831	-0.01145	0.81814	0.20607	0.12560	0.69490	0.23181 
3042	25.342	0.01332	0.49637	0.26828	-0.01145	0.81815	0.20601	0.12560	0.69494	0.23177 
